<?xml version="1.0" encoding="UTF-8"?>
<svg xmlns="http://www.w3.org/2000/svg" xmlns:xlink="http://www.w3.org/1999/xlink" style="display: none;">
  <!-- Apps Icon -->
  <symbol id="mdi-apps" viewBox="0 0 24 24">
    <path d="M16,20H20V16H16M16,14H20V10H16M10,8H14V4H10M16,8H20V4H16M10,14H14V10H10M4,14H8V10H4M4,20H8V16H4M10,20H14V16H10M4,8H8V4H4V8Z" />
  </symbol>

  <!-- Arrow Left Icon -->
  <symbol id="mdi-arrow-left" viewBox="0 0 24 24">
    <path d="M20,11V13H8L13.5,18.5L12.08,19.92L4.16,12L12.08,4.08L13.5,5.5L8,11H20Z" />
  </symbol>

  <!-- Chart Line Icon -->
  <symbol id="mdi-chart-line" viewBox="0 0 24 24">
    <path d="M3.5,18.5L9.5,12.5L13.5,16.5L22,6.92L20.59,5.5L13.5,13.5L9.5,9.5L2,17L3.5,18.5Z" />
  </symbol>

  <!-- Chat Outline Icon -->
  <symbol id="mdi-chat-outline" viewBox="0 0 24 24">
    <path d="M12,3C6.5,3 2,6.58 2,11C2.05,13.15 3.06,15.17 4.75,16.5C4.75,17.1 4.33,18.67 2,21C4.37,20.89 6.64,20 8.47,18.5C9.61,18.83 10.81,19 12,19C17.5,19 22,15.42 22,11C22,6.58 17.5,3 12,3M12,17C7.58,17 4,14.31 4,11C4,7.69 7.58,5 12,5C16.42,5 20,7.69 20,11C20,14.31 16.42,17 12,17Z" />
  </symbol>

  <!-- Clock Outline Icon -->
  <symbol id="mdi-clock-outline" viewBox="0 0 24 24">
    <path d="M12,20A8,8 0 0,0 20,12A8,8 0 0,0 12,4A8,8 0 0,0 4,12A8,8 0 0,0 12,20M12,2A10,10 0 0,1 22,12A10,10 0 0,1 12,22C6.47,22 2,17.5 2,12A10,10 0 0,1 12,2M12.5,7V12.25L17,14.92L16.25,16.15L11,13V7H12.5Z" />
  </symbol>

  <!-- Cog Outline Icon -->
  <symbol id="mdi-cog-outline" viewBox="0 0 24 24">
    <path d="M12,15.5A3.5,3.5 0 0,1 8.5,12A3.5,3.5 0 0,1 12,8.5A3.5,3.5 0 0,1 15.5,12A3.5,3.5 0 0,1 12,15.5M19.43,12.97C19.47,12.65 19.5,12.33 19.5,12C19.5,11.67 19.47,11.34 19.43,11L21.54,9.37C21.73,9.22 21.78,8.95 21.66,8.73L19.66,5.27C19.54,5.05 19.27,4.96 19.05,5.05L16.56,6.05C16.04,5.66 15.5,5.32 14.87,5.07L14.5,2.42C14.46,2.18 14.25,2 14,2H10C9.75,2 9.54,2.18 9.5,2.42L9.13,5.07C8.5,5.32 7.96,5.66 7.44,6.05L4.95,5.05C4.73,4.96 4.46,5.05 4.34,5.27L2.34,8.73C2.21,8.95 2.27,9.22 2.46,9.37L4.57,11C4.53,11.34 4.5,11.67 4.5,12C4.5,12.33 4.53,12.65 4.57,12.97L2.46,14.63C2.27,14.78 2.21,15.05 2.34,15.27L4.34,18.73C4.46,18.95 4.73,19.03 4.95,18.95L7.44,17.94C7.96,18.34 8.5,18.68 9.13,18.93L9.5,21.58C9.54,21.82 9.75,22 10,22H14C14.25,22 14.46,21.82 14.5,21.58L14.87,18.93C15.5,18.67 16.04,18.34 16.56,17.94L19.05,18.95C19.27,19.03 19.54,18.95 19.66,18.73L21.66,15.27C21.78,15.05 21.73,14.78 21.54,14.63L19.43,12.97Z" />
  </symbol>

  <!-- Plus Icon -->
  <symbol id="mdi-plus" viewBox="0 0 24 24">
    <path d="M19,13H13V19H11V13H5V11H11V5H13V11H19V13Z" />
  </symbol>

  <!-- Close Icon -->
  <symbol id="mdi-close" viewBox="0 0 24 24">
    <path d="M19,6.41L17.59,5L12,10.59L6.41,5L5,6.41L10.59,12L5,17.59L6.41,19L12,13.41L17.59,19L19,17.59L13.41,12L19,6.41Z" />
  </symbol>

  <!-- Menu Icon -->
  <symbol id="mdi-menu" viewBox="0 0 24 24">
    <path d="M3,6H21V8H3V6M3,11H21V13H3V11M3,16H21V18H3V16Z" />
  </symbol>

  <!-- Star Outline Icon -->
  <symbol id="mdi-star-outline" viewBox="0 0 24 24">
    <path d="M12,15.39L8.24,17.66L9.23,13.38L5.91,10.5L10.29,10.13L12,6.09L13.71,10.13L18.09,10.5L14.77,13.38L15.76,17.66M22,9.24L14.81,8.63L12,2L9.19,8.63L2,9.24L7.45,13.97L5.82,21L12,17.27L18.18,21L16.54,13.97L22,9.24Z" />
  </symbol>

  <!-- View Dashboard Outline Icon -->
  <symbol id="mdi-view-dashboard-outline" viewBox="0 0 24 24">
    <path d="M19,5V7H15V5H19M9,5V11H5V5H9M19,13V19H15V13H19M9,17V19H5V17H9M21,3H3C1.89,3 1,3.89 1,5V19A2,2 0 0,0 3,21H21A2,2 0 0,0 23,19V5C23,3.89 22.1,3 21,3M21,19H3V5H21V19Z" />
  </symbol>

  <!-- Robot Icon -->
  <symbol id="mdi-robot" viewBox="0 0 24 24">
    <path d="M12,2A2,2 0 0,1 14,4C14,5.11 13.1,6 12,6A2,2 0 0,1 10,4C10,2.89 10.9,2 12,2M10.5,22V16H7.5L10.09,8.41C10.34,7.59 11.1,7 12,7C12.9,7 13.66,7.59 13.91,8.41L16.5,16H13.5V22H10.5M20,13H18V11H20V13M20,17H18V15H20V17M20,9H18V7H20V9M4,13H2V11H4V13M4,17H2V15H4V17M4,9H2V7H4V9Z" />
  </symbol>

  <!-- Account Icon -->
  <symbol id="mdi-account" viewBox="0 0 24 24">
    <path d="M12,4A4,4 0 0,1 16,8A4,4 0 0,1 12,12A4,4 0 0,1 8,8A4,4 0 0,1 12,4M12,14C16.42,14 20,15.79 20,18V20H4V18C4,15.79 7.58,14 12,14Z" />
  </symbol>

  <!-- Send Icon -->
  <symbol id="mdi-send" viewBox="0 0 24 24">
    <path d="M2,21L23,12L2,3V10L17,12L2,14V21Z" />
  </symbol>

  <!-- Upload Icon -->
  <symbol id="mdi-upload" viewBox="0 0 24 24">
    <path d="M9,16V10H5L12,3L19,10H15V16H9M5,20V18H19V20H5Z" />
  </symbol>

  <!-- Delete Outline Icon -->
  <symbol id="mdi-delete-outline" viewBox="0 0 24 24">
    <path d="M6,19A2,2 0 0,0 8,21H16A2,2 0 0,0 18,19V7H6V19M8,9H16V19H8V9M15.5,4L14.5,3H9.5L8.5,4H5V6H19V4H15.5Z" />
  </symbol>

  <!-- Magnify Icon -->
  <symbol id="mdi-magnify" viewBox="0 0 24 24">
    <path d="M9.5,3A6.5,6.5 0 0,1 16,9.5C16,11.11 15.41,12.59 14.44,13.73L14.71,14H15.5L20.5,19L19,20.5L14,15.5V14.71L13.73,14.44C12.59,15.41 11.11,16 9.5,16A6.5,6.5 0 0,1 3,9.5A6.5,6.5 0 0,1 9.5,3M9.5,5C7,5 5,7 5,9.5C5,12 7,14 9.5,14C12,14 14,12 14,9.5C14,7 12,5 9.5,5Z" />
  </symbol>

  <!-- Message Text Outline Icon -->
  <symbol id="mdi-message-text-outline" viewBox="0 0 24 24">
    <path d="M20,2H4A2,2 0 0,0 2,4V22L6,18H20A2,2 0 0,0 22,16V4C22,2.89 21.1,2 20,2M6,9H18V11H6M14,14H6V12H14M18,8H6V6H18" />
  </symbol>

  <!-- Image Outline Icon -->
  <symbol id="mdi-image-outline" viewBox="0 0 24 24">
    <path d="M19,19H5V5H19M19,3H5A2,2 0 0,0 3,5V19A2,2 0 0,0 5,21H19A2,2 0 0,0 21,19V5A2,2 0 0,0 19,3M13.96,12.29L11.21,15.83L9.25,13.47L6.5,17H17.5L13.96,12.29Z" />
  </symbol>

  <!-- Microphone Icon -->
  <symbol id="mdi-microphone" viewBox="0 0 24 24">
    <path d="M12,2A3,3 0 0,1 15,5V11A3,3 0 0,1 12,14A3,3 0 0,1 9,11V5A3,3 0 0,1 12,2M19,11C19,14.53 16.39,17.44 13,17.93V21H11V17.93C7.61,17.44 5,14.53 5,11H7A5,5 0 0,0 12,16A5,5 0 0,0 17,11H19Z" />
  </symbol>

  <!-- Emoticon Outline Icon -->
  <symbol id="mdi-emoticon-outline" viewBox="0 0 24 24">
    <path d="M12,17.5C14.33,17.5 16.31,16.04 17.11,14H6.89C7.69,16.04 9.67,17.5 12,17.5M8.5,11A1.5,1.5 0 0,0 10,9.5A1.5,1.5 0 0,0 8.5,8A1.5,1.5 0 0,0 7,9.5A1.5,1.5 0 0,0 8.5,11M15.5,11A1.5,1.5 0 0,0 17,9.5A1.5,1.5 0 0,0 15.5,8A1.5,1.5 0 0,0 14,9.5A1.5,1.5 0 0,0 15.5,11M12,20A8,8 0 0,1 4,12A8,8 0 0,1 12,4A8,8 0 0,1 20,12A8,8 0 0,1 12,20M12,2A10,10 0 0,0 2,12A10,10 0 0,0 12,22A10,10 0 0,0 22,12A10,10 0 0,0 12,2Z" />
  </symbol>

  <!-- Account Group Outline Icon -->
  <symbol id="mdi-account-group-outline" viewBox="0 0 24 24">
    <path d="M12,5.5A3.5,3.5 0 0,0 8.5,9A3.5,3.5 0 0,0 12,12.5A3.5,3.5 0 0,0 15.5,9A3.5,3.5 0 0,0 12,5.5M5,8C5.56,8 6.08,8.15 6.53,8.42C6.38,9.85 6.8,11.27 7.66,12.38C7.16,13.34 6.16,14 5,14A3,3 0 0,1 2,11A3,3 0 0,1 5,8M19,8A3,3 0 0,1 22,11A3,3 0 0,1 19,14C17.84,14 16.84,13.34 16.34,12.38C17.2,11.27 17.62,9.85 17.47,8.42C17.92,8.15 18.44,8 19,8M5.5,18.25C5.5,16.18 8.41,14.5 12,14.5C15.59,14.5 18.5,16.18 18.5,18.25V20H5.5V18.25M0,20V18.5C0,17.11 1.89,15.94 4.45,15.6C3.86,16.28 3.5,17.22 3.5,18.25V20H0M24,20H20.5V18.25C20.5,17.22 20.14,16.28 19.55,15.6C22.11,15.94 24,17.11 24,18.5V20Z" />
  </symbol>

  <!-- Book Open Variant Icon -->
  <symbol id="mdi-book-open-variant" viewBox="0 0 24 24">
    <path d="M21,5C19.89,4.65 18.67,4.5 17.5,4.5C15.55,4.5 13.45,4.9 12,6C10.55,4.9 8.45,4.5 6.5,4.5C4.55,4.5 2.45,4.9 1,6V20.65C1,20.9 1.25,21.15 1.5,21.15C1.6,21.15 1.65,21.1 1.75,21.1C3.1,20.45 5.05,20 6.5,20C8.45,20 10.55,20.4 12,21.5C13.35,20.65 15.8,20 17.5,20C19.15,20 20.85,20.3 22.25,21.05C22.35,21.1 22.4,21.1 22.5,21.1C22.75,21.1 23,20.85 23,20.6V6C22.4,5.55 21.75,5.25 21,5M21,18.5C19.9,18.15 18.7,18 17.5,18C15.8,18 13.35,18.65 12,19.5V8C13.35,7.15 15.8,6.5 17.5,6.5C18.7,6.5 19.9,6.65 21,7V18.5Z" />
  </symbol>

  <!-- Calendar Today Icon -->
  <symbol id="mdi-calendar-today" viewBox="0 0 24 24">
    <path d="M7,10H12V15H7M19,19H5V8H19M19,3H18V1H16V3H8V1H6V3H5C3.89,3 3,3.9 3,5V19A2,2 0 0,0 5,21H19A2,2 0 0,0 21,19V5C21,3.9 20.1,3 19,3Z" />
  </symbol>

  <!-- Clipboard Check Outline Icon -->
  <symbol id="mdi-clipboard-check-outline" viewBox="0 0 24 24">
    <path d="M19,3H14.82C14.4,1.84 13.3,1 12,1C10.7,1 9.6,1.84 9.18,3H5A2,2 0 0,0 3,5V19A2,2 0 0,0 5,21H19A2,2 0 0,0 21,19V5A2,2 0 0,0 19,3M12,3A1,1 0 0,1 13,4A1,1 0 0,1 12,5A1,1 0 0,1 11,4A1,1 0 0,1 12,3M7,7H17V5H19V19H5V5H7V7M7.5,13.5L9,12L11,14L15.5,9.5L17,11L11,17L7.5,13.5Z" />
  </symbol>

  <!-- Medal Icon -->
  <symbol id="mdi-medal" viewBox="0 0 24 24">
    <path d="M20,2H4V4L9.81,8.36C6.81,8.23 4,10.82 4,14A6,6 0 0,0 10,20C13.18,20 15.77,17.19 15.64,14.19L20,10.81V2M14.94,19.5L12,17.78L9.06,19.5L9.84,16.17L7.25,13.93L10.66,13.64L12,10.5L13.34,13.64L16.75,13.93L14.16,16.17L14.94,19.5Z" />
  </symbol>

  <!-- Meditation Icon -->
  <symbol id="mdi-meditation" viewBox="0 0 24 24">
    <path d="M12,4C13.11,4 14,3.11 14,2C14,0.89 13.11,0 12,0C10.89,0 10,0.89 10,2C10,3.11 10.89,4 12,4M10.5,14V22H7.5V14H10.5M16.5,14V22H13.5V14H16.5M15.09,4.41C14.8,3.7 14.8,2.92 15.16,2.21C15.5,1.5 16.21,1 17,1C17.79,1 18.5,1.5 18.84,2.21C19.2,2.92 19.2,3.7 18.91,4.41C18.6,5.12 17.89,5.62 17,5.62C16.11,5.62 15.4,5.12 15.09,4.41M8.91,4.41C8.6,5.12 7.89,5.62 7,5.62C6.11,5.62 5.4,5.12 5.09,4.41C4.8,3.7 4.8,2.92 5.16,2.21C5.5,1.5 6.21,1 7,1C7.79,1 8.5,1.5 8.84,2.21C9.2,2.92 9.2,3.7 8.91,4.41M12,22C13.11,22 14,21.11 14,20C14,18.89 13.11,18 12,18C10.89,18 10,18.89 10,20C10,21.11 10.89,22 12,22Z" />
  </symbol>

  <!-- Token Icon -->
  <symbol id="mdi-token" viewBox="0 0 24 24">
    <path d="M21,7L9,19L3.5,13.5L4.91,12.09L9,16.17L19.59,5.59L21,7Z" />
  </symbol>

  <!-- View Dashboard Icon -->
  <symbol id="mdi-view-dashboard" viewBox="0 0 24 24">
    <path d="M3,13H9V23H3V13M3,1H9V11H3V1M13,5H19V11H13V5M13,13H19V23H13V13Z" />
  </symbol>

  <!-- Account Circle Outline Icon -->
  <symbol id="mdi-account-circle-outline" viewBox="0 0 24 24">
    <path d="M12,4A4,4 0 0,1 16,8A4,4 0 0,1 12,12A4,4 0 0,1 8,8A4,4 0 0,1 12,4M12,14C16.42,14 20,15.79 20,18V20H4V18C4,15.79 7.58,14 12,14M12,2A10,10 0 0,0 2,12A10,10 0 0,0 12,22A10,10 0 0,0 22,12A10,10 0 0,0 12,2M12,20C9.24,20 7,17.76 7,15C7,12.24 9.24,10 12,10C14.76,10 17,12.24 17,15C17,17.76 14.76,20 12,20Z" />
  </symbol>

  <!-- Bell Outline Icon -->
  <symbol id="mdi-bell-outline" viewBox="0 0 24 24">
    <path d="M12,22A2,2 0 0,0 14,20H10A2,2 0 0,0 12,22M18,16V11C18,7.93 16.36,5.36 13.5,4.68V4A1.5,1.5 0 0,0 12,2.5A1.5,1.5 0 0,0 10.5,4V4.68C7.63,5.36 6,7.92 6,11V16L4,18V19H20V18L18,16M16,17H8V11C8,8.79 9.79,7 12,7C14.21,7 16,8.79 16,11V17Z" />
  </symbol>

  <!-- Chart Box Icon -->
  <symbol id="mdi-chart-box" viewBox="0 0 24 24">
    <path d="M19,3H5C3.89,3 3,3.89 3,5V19A2,2 0 0,0 5,21H19A2,2 0 0,0 21,19V5C21,3.89 20.1,3 19,3M9,17H7V10H9V17M13,17H11V7H13V17M17,17H15V13H17V17Z" />
  </symbol>

  <!-- Chevron Right Icon -->
  <symbol id="mdi-chevron-right" viewBox="0 0 24 24">
    <path d="M8.59,16.58L13.17,12L8.59,7.41L10,6L16,12L10,18L8.59,16.58Z" />
  </symbol>

  <!-- Clipboard List Outline Icon -->
  <symbol id="mdi-clipboard-list-outline" viewBox="0 0 24 24">
    <path d="M19,3H14.82C14.4,1.84 13.3,1 12,1C10.7,1 9.6,1.84 9.18,3H5A2,2 0 0,0 3,5V19A2,2 0 0,0 5,21H19A2,2 0 0,0 21,19V5A2,2 0 0,0 19,3M12,3A1,1 0 0,1 13,4A1,1 0 0,1 12,5A1,1 0 0,1 11,4A1,1 0 0,1 12,3M7,7H17V5H19V19H5V5H7V7M7.5,13.5L9,12L11,14L15.5,9.5L17,11L11,17L7.5,13.5Z" />
  </symbol>

  <!-- Folder Multiple Icon -->
  <symbol id="mdi-folder-multiple" viewBox="0 0 24 24">
    <path d="M22,4H14L12,2H6A2,2 0 0,0 4,4V16A2,2 0 0,0 6,18H22A2,2 0 0,0 24,16V6A2,2 0 0,0 22,4M22,16H6V4H11.17L13.17,6H22V16M2,6V20A2,2 0 0,0 4,22H20V20H4V6H2Z" />
  </symbol>

  <!-- Help Circle Outline Icon -->
  <symbol id="mdi-help-circle-outline" viewBox="0 0 24 24">
    <path d="M11,18H13V16H11V18M12,2A10,10 0 0,0 2,12A10,10 0 0,0 12,22A10,10 0 0,0 22,12A10,10 0 0,0 12,2M12,20C7.59,20 4,16.41 4,12C4,7.59 7.59,4 12,4C16.41,4 20,7.59 20,12C20,16.41 16.41,20 12,20M12,6A4,4 0 0,0 8,10H10A2,2 0 0,1 12,8A2,2 0 0,1 14,10C14,12 11,11.75 11,15H13C13,12.75 16,12.5 16,10A4,4 0 0,0 12,6Z" />
  </symbol>

  <!-- Server Icon -->
  <symbol id="mdi-server" viewBox="0 0 24 24">
    <path d="M4,1H20A1,1 0 0,1 21,2V6A1,1 0 0,1 20,7H4A1,1 0 0,1 3,6V2A1,1 0 0,1 4,1M4,9H20A1,1 0 0,1 21,10V14A1,1 0 0,1 20,15H4A1,1 0 0,1 3,14V10A1,1 0 0,1 4,9M4,17H20A1,1 0 0,1 21,18V22A1,1 0 0,1 20,23H4A1,1 0 0,1 3,22V18A1,1 0 0,1 4,17M9,5H10V3H9V5M9,13H10V11H9V13M9,21H10V19H9V21M5,3V5H7V3H5M5,11V13H7V11H5M5,19V21H7V19H5Z" />
  </symbol>

  <!-- Flask Outline Icon -->
  <symbol id="mdi-flask-outline" viewBox="0 0 24 24">
    <path d="M5,19A1,1 0 0,0 6,20H18A1,1 0 0,0 19,19C19,18.79 18.93,18.59 18.82,18.43L13,8.35V4H11V8.35L5.18,18.43C5.07,18.59 5,18.79 5,19M6,22A3,3 0 0,1 3,19C3,18.4 3.18,17.84 3.5,17.37L9,7.81V6A1,1 0 0,1 8,5V4A2,2 0 0,1 10,2H14A2,2 0 0,1 16,4V5A1,1 0 0,1 15,6V7.81L20.5,17.37C20.82,17.84 21,18.4 21,19A3,3 0 0,1 18,22H6M13,10C12.45,10 12,10.45 12,11C12,11.55 12.45,12 13,12C13.55,12 14,11.55 14,11C14,10.45 13.55,10 13,10M10,13C9.45,13 9,13.45 9,14C9,14.55 9.45,15 10,15C10.55,15 11,14.55 11,14C11,13.45 10.55,13 10,13M15,15C14.45,15 14,15.45 14,16C14,16.55 14.45,17 15,17C15.55,17 16,16.55 16,16C16,15.45 15.55,15 15,15Z" />
  </symbol>

  <!-- Forum Outline Icon -->
  <symbol id="mdi-forum-outline" viewBox="0 0 24 24">
    <path d="M15,4V11H5.17L4,12.17V4H15M16,2H3A1,1 0 0,0 2,3V17L6,13H16A1,1 0 0,0 17,12V3A1,1 0 0,0 16,2M21,6H19V15H6V17A1,1 0 0,0 7,18H18L22,22V7A1,1 0 0,0 21,6Z" />
  </symbol>

  <!-- Twitter Icon -->
  <symbol id="mdi-twitter" viewBox="0 0 24 24">
    <path d="M22.46,6C21.69,6.35 20.86,6.58 20,6.69C20.88,6.16 21.56,5.32 21.88,4.31C21.05,4.81 20.13,5.16 19.16,5.36C18.37,4.5 17.26,4 16,4C13.65,4 11.73,5.92 11.73,8.29C11.73,8.63 11.77,8.96 11.84,9.27C8.28,9.09 5.11,7.38 3,4.79C2.63,5.42 2.42,6.16 2.42,6.94C2.42,8.43 3.17,9.75 4.33,10.5C3.62,10.5 2.96,10.3 2.38,10C2.38,10 2.38,10 2.38,10.03C2.38,12.11 3.86,13.85 5.82,14.24C5.46,14.34 5.08,14.39 4.69,14.39C4.42,14.39 4.15,14.36 3.89,14.31C4.43,16 6,17.26 7.89,17.29C6.43,18.45 4.58,19.13 2.56,19.13C2.22,19.13 1.88,19.11 1.54,19.07C3.44,20.29 5.7,21 8.12,21C16,21 20.33,14.46 20.33,8.79C20.33,8.6 20.33,8.42 20.32,8.23C21.16,7.63 21.88,6.87 22.46,6Z" />
  </symbol>

  <!-- Github Icon -->
  <symbol id="mdi-github" viewBox="0 0 24 24">
    <path d="M12,2A10,10 0 0,0 2,12C2,16.42 4.87,20.17 8.84,21.5C9.34,21.58 9.5,21.27 9.5,21C9.5,20.77 9.5,20.14 9.5,19.31C6.73,19.91 6.14,17.97 6.14,17.97C5.68,16.81 5.03,16.5 5.03,16.5C4.12,15.88 5.1,15.9 5.1,15.9C6.1,15.97 6.63,16.93 6.63,16.93C7.5,18.45 8.97,18 9.54,17.76C9.63,17.11 9.89,16.67 10.17,16.42C7.95,16.17 5.62,15.31 5.62,11.5C5.62,10.39 6,9.5 6.65,8.79C6.55,8.54 6.2,7.5 6.75,6.15C6.75,6.15 7.59,5.88 9.5,7.17C10.29,6.95 11.15,6.84 12,6.84C12.85,6.84 13.71,6.95 14.5,7.17C16.41,5.88 17.25,6.15 17.25,6.15C17.8,7.5 17.45,8.54 17.35,8.79C18,9.5 18.38,10.39 18.38,11.5C18.38,15.32 16.04,16.16 13.81,16.41C14.17,16.72 14.5,17.33 14.5,18.26C14.5,19.6 14.5,20.68 14.5,21C14.5,21.27 14.66,21.59 15.17,21.5C19.14,20.16 22,16.42 22,12A10,10 0 0,0 12,2Z" />
  </symbol>

  <!-- Logout Icon -->
  <symbol id="mdi-logout" viewBox="0 0 24 24">
    <path d="M16,17V14H9V10H16V7L21,12L16,17M14,2A2,2 0 0,1 16,4V6H14V4H5V20H14V18H16V20A2,2 0 0,1 14,22H5A2,2 0 0,1 3,20V4A2,2 0 0,1 5,2H14Z" />
  </symbol>

  <!-- Chevron Up Icon -->
  <symbol id="mdi-chevron-up" viewBox="0 0 24 24">
    <path d="M7.41,15.41L12,10.83L16.59,15.41L18,14L12,8L6,14L7.41,15.41Z" />
  </symbol>

  <!-- Chevron Down Icon -->
  <symbol id="mdi-chevron-down" viewBox="0 0 24 24">
    <path d="M7.41,8.58L12,13.17L16.59,8.58L18,10L12,16L6,10L7.41,8.58Z" />
  </symbol>
</svg> 